<svg xmlns="http://www.w3.org/2000/svg" viewBox="0 0 458.27 392.11"><defs><style>.cls-1{fill:#fc3;}</style></defs><g id="Layer_2" data-name="Layer 2"><g id="Layer_1-2" data-name="Layer 1"><g id="Layer_2-2" data-name="Layer 2"><g id="Layer_1-2-2" data-name="Layer 1-2"><path class="cls-1" d="M409.49,43.51l-263,263.05L49.79,209.91a12,12,0,0,0-17,0l0,0L4.53,238.19a12,12,0,0,0,0,17l0,0L138,388.58a12,12,0,0,0,17,0l0,0L454.74,88.77a12,12,0,0,0,0-17l0,0L426.46,43.51A12,12,0,0,0,409.49,43.51Z"/><path d="M408.49,3.51l-263,263.05L48.79,169.91a12,12,0,0,0-17,0l0,0L3.53,198.19a12,12,0,0,0,0,17l0,0L137,348.58a12,12,0,0,0,17,0l0,0L453.74,48.77a12,12,0,0,0,0-17l0,0L425.46,3.51A12,12,0,0,0,408.49,3.51Z"/></g></g></g></g></svg>