<svg xmlns="http://www.w3.org/2000/svg" viewBox="0 0 379.81 121.35"><defs><style>.cls-1{fill:#1d1e1c;}.cls-2{fill:#1d1d1b;}</style></defs><g id="Layer_2" data-name="Layer 2"><g id="Layer_1-2" data-name="Layer 1"><polygon class="cls-1" points="11.99 52.17 0 0 10.32 0 16.98 36.63 23.64 0 33.97 0 21.98 52.17 21.98 77.7 11.99 77.7 11.99 52.17"/><path class="cls-1" d="M58.27,62.5H47.18L45.62,77.7h-10L43.84,0H61.6l8,77.7H59.82Zm-10-10h8.88L52.72,10Z"/><path class="cls-1" d="M94.72,44.74H86.29v33h-10V0H96.83a6.68,6.68,0,0,1,6.67,6.66V33.75c0,2.77-1.45,4.88-3.45,5.44,3,.66,4.67,3.77,4.67,6.55v32h-10Zm-8.43-10H93.5V10H86.29Z"/><polygon class="cls-1" points="131.17 9.99 112.19 9.99 112.19 0 141.27 0 141.27 12.21 121.4 67.72 141.27 67.72 141.27 77.7 110.86 77.7 110.86 67.72 131.17 9.99"/><rect class="cls-1" x="148.59" width="9.99" height="77.71"/><polygon class="cls-1" points="180.84 0 190.39 38.63 190.39 0 200.38 0 200.38 77.7 188.61 77.7 178.62 35.97 178.62 77.7 168.63 77.7 168.63 0 180.84 0"/><path class="cls-1" d="M232.35,54.28V67.72h8.43V42.63H229a6.65,6.65,0,0,1-6.65-6.55V6.66A6.35,6.35,0,0,1,229,0h15.1a6.46,6.46,0,0,1,6.67,6.55V22.87h-10V10h-8.43V32.64h11.76a6.68,6.68,0,0,1,6.67,6.66V71.16a6.66,6.66,0,0,1-6.67,6.55H229a6.73,6.73,0,0,1-6.65-6.55V54.28Z"/><polygon class="cls-1" points="285.07 77.7 259.32 77.7 259.32 0 284.3 0 284.3 9.99 269.31 9.99 269.31 31.42 279.86 31.42 279.86 41.41 269.31 41.41 269.31 67.72 285.07 67.72 285.07 77.7"/><polygon class="cls-1" points="292.51 0 302.5 0 302.5 67.72 314.26 67.72 314.26 77.7 292.51 77.7 292.51 0"/><polygon class="cls-1" points="320.48 0 330.47 0 330.47 67.72 342.24 67.72 342.24 77.7 320.48 77.7 320.48 0"/><path class="cls-1" d="M368.43,62.5h-11.1l-1.55,15.2h-10L354,0h17.76l8,77.7H370Zm-10-10h8.88L362.88,10Z"/><path class="cls-2" d="M14.06,106v8.88a.44.44,0,0,1-.47.44H12.2a.44.44,0,0,1-.47-.44V97.57a.46.46,0,0,1,.47-.47h1.39a.47.47,0,0,1,.47.47v6.29h6.66V97.57a.47.47,0,0,1,.48-.47h1.38a.46.46,0,0,1,.47.47v17.29a.44.44,0,0,1-.47.44H21.2a.45.45,0,0,1-.48-.44V106Z"/><path class="cls-2" d="M36.89,113.29h4a.47.47,0,0,1,.47.48v1.06a.46.46,0,0,1-.47.47H30.61a.46.46,0,0,1-.47-.47v-1.06a.47.47,0,0,1,.47-.48h4v-9.88h-2a.46.46,0,0,1-.44-.47v-1.09a.44.44,0,0,1,.44-.44h3.66a.64.64,0,0,1,.62.62Zm-1.8-18.4a1.89,1.89,0,1,1-1.89,1.89,1.9,1.9,0,0,1,1.89-1.89"/><path class="cls-2" d="M58.25,116c0,4.72-3.1,5.34-7.23,5.34H50a.51.51,0,0,1-.56-.56v-.89a.49.49,0,0,1,.56-.53c4.6,0,6-.29,6-3.77v-1.21a5.22,5.22,0,0,1-3.43,1.21,5.47,5.47,0,0,1-5.6-5.31v-3.84a5.47,5.47,0,0,1,5.6-5.31,4.44,4.44,0,0,1,3.63,1.71v-1a.45.45,0,0,1,.44-.44h1.18a.44.44,0,0,1,.48.44ZM56,106.22a3.36,3.36,0,0,0-6.7.11v4.07a3.36,3.36,0,0,0,6.7.12Z"/><path class="cls-2" d="M68.19,102.56a10.14,10.14,0,0,1,4.72-1.42c2.39,0,4.24,1.36,4.24,5.22v8.47a.44.44,0,0,1-.44.47H75.3a.47.47,0,0,1-.45-.47v-9c0-1.88-1-2.53-2.36-2.53a9.52,9.52,0,0,0-4.3,1.41v10.12a.49.49,0,0,1-.47.47H66.33c-.29,0-.41-.21-.41-.47v-19a.44.44,0,0,1,.47-.44h1.33a.44.44,0,0,1,.47.44Z"/><path class="cls-2" d="M95.86,106.81a.48.48,0,0,1,.47.47v1.18a.49.49,0,0,1-.47.47H85.59a.47.47,0,0,1-.47-.47v-1.18a.46.46,0,0,1,.47-.47Z"/><path class="cls-2" d="M115.45,97.1a.46.46,0,0,1,.47.44v1.24a.49.49,0,0,1-.47.48h-8.53v4.6h4.69a.45.45,0,0,1,.47.44v1.21a.48.48,0,0,1-.47.47h-4.69v7.17h8.53a.46.46,0,0,1,.47.44v1.24a.49.49,0,0,1-.47.47H105.21a.64.64,0,0,1-.62-.62v-17a.65.65,0,0,1,.62-.62Z"/><path class="cls-2" d="M124.27,102.59a10.34,10.34,0,0,1,4.83-1.48c2.39,0,4.25,1.36,4.25,5.2v8.52a.43.43,0,0,1-.44.47h-1.42a.46.46,0,0,1-.44-.47v-9c0-1.88-1-2.53-2.36-2.53a9.52,9.52,0,0,0-4.3,1.41v10.12a.48.48,0,0,1-.48.47h-1.38c-.3,0-.42-.2-.42-.47v-13a.45.45,0,0,1,.48-.44h1.21a.44.44,0,0,1,.47.44Z"/><path class="cls-2" d="M150.43,95.36a.46.46,0,0,1,.47.47v19a.43.43,0,0,1-.47.44h-1.21a.41.41,0,0,1-.44-.38v-1a4.28,4.28,0,0,1-3.63,1.69,5.48,5.48,0,0,1-5.6-5.34v-3.81a5.45,5.45,0,0,1,5.6-5.31,4.9,4.9,0,0,1,3.42,1.33V95.83a.47.47,0,0,1,.48-.47Zm-8.58,14.81a3.41,3.41,0,0,0,6.81,0V106.6a3.41,3.41,0,1,0-6.81,0Z"/><path class="cls-2" d="M169.79,97.72a.64.64,0,0,1,.61-.62h10.24a.46.46,0,0,1,.47.44v1.24a.48.48,0,0,1-.47.48h-8.52v4.6h4.69a.46.46,0,0,1,.47.44v1.21a.49.49,0,0,1-.47.47h-4.69v8.88a.45.45,0,0,1-.48.44h-1.38a.44.44,0,0,1-.47-.44Z"/><path class="cls-2" d="M183.92,106.45a5.67,5.67,0,0,1,11.32,0v3.81a5.67,5.67,0,0,1-11.32,0Zm9,4v-4.07a3.35,3.35,0,0,0-6.69,0v4.07a3.35,3.35,0,0,0,6.69,0"/><path class="cls-2" d="M201.44,106.45a5.68,5.68,0,0,1,11.33,0v3.81a5.67,5.67,0,0,1-11.33,0Zm9,4v-4.07a3.35,3.35,0,0,0-6.69,0v4.07a3.35,3.35,0,0,0,6.69,0"/><path class="cls-2" d="M230,95.36a.46.46,0,0,1,.47.47v19a.43.43,0,0,1-.47.44h-1.21a.41.41,0,0,1-.44-.38v-1a4.28,4.28,0,0,1-3.63,1.69,5.48,5.48,0,0,1-5.6-5.34v-3.81a5.45,5.45,0,0,1,5.6-5.31,4.9,4.9,0,0,1,3.42,1.33V95.83a.47.47,0,0,1,.48-.47Zm-8.58,14.81a3.41,3.41,0,0,0,6.81,0V106.6a3.41,3.41,0,1,0-6.81,0Z"/><path class="cls-2" d="M249.67,114.5a.5.5,0,0,1-.35-.67l.32-1a.49.49,0,0,1,.71-.26,12.59,12.59,0,0,0,4.48.91c1.89,0,3.1-.91,3.19-2.56.12-1.89-1.21-2.57-3.75-3.63-4.28-1.77-5.72-3.45-5.49-6s2.37-4.48,5.37-4.48A12.67,12.67,0,0,1,259,97.9a.51.51,0,0,1,.35.68l-.32,1a.5.5,0,0,1-.71.27,11,11,0,0,0-4-.92c-1.89,0-3.15.92-3.24,2.57-.12,1.89,1.68,2.74,3.77,3.6,4.28,1.77,5.75,3.18,5.52,6-.24,2.69-2.36,4.49-5.37,4.49a14.33,14.33,0,0,1-5.31-1.1"/><path class="cls-2" d="M268.58,109v1c0,3,1.65,3.36,6,3.36a.5.5,0,0,1,.56.54v.88a.52.52,0,0,1-.56.56h-1.13c-4.12,0-7.16-.65-7.16-5.49v-3.45a5.6,5.6,0,0,1,11.18,0v1.51a1.12,1.12,0,0,1-1.12,1.12Zm0-1.92h6.58v-.74a3.29,3.29,0,0,0-6.58,0Z"/><path class="cls-2" d="M288.28,104.51c1.12-2.39,3.07-3.1,5.31-3.1h.68a.49.49,0,0,1,.56.53V103c0,.36-.2.5-.56.5h-.68c-3.18,0-4.42,2-5.31,3.22v6.57H292a.47.47,0,0,1,.47.48v1.06a.46.46,0,0,1-.47.47h-7.84a.47.47,0,0,1-.48-.47v-1.06a.47.47,0,0,1,.48-.48h2.09v-9.88h-2.09a.47.47,0,0,1-.48-.47v-1.09a.45.45,0,0,1,.48-.44h3.53a.64.64,0,0,1,.62.62Z"/><path class="cls-2" d="M309.38,101.82a.61.61,0,0,1,.67-.41h1.39a.36.36,0,0,1,.35.5l-4.6,12.68a1.28,1.28,0,0,1-2.42,0l-4.6-12.68a.37.37,0,0,1,.36-.5h1.38a.62.62,0,0,1,.68.41l2.6,8.17s.65,2.13.79,2.8c.15-.67.8-2.8.8-2.8Z"/><path class="cls-2" d="M324.51,113.29h3.95a.47.47,0,0,1,.47.48v1.06a.46.46,0,0,1-.47.47H318.23a.46.46,0,0,1-.47-.47v-1.06a.47.47,0,0,1,.47-.48h4v-9.88h-2a.46.46,0,0,1-.44-.47v-1.09a.44.44,0,0,1,.44-.44h3.66a.64.64,0,0,1,.62.62Zm-1.8-18.4a1.89,1.89,0,1,1-1.89,1.89,1.9,1.9,0,0,1,1.89-1.89"/><path class="cls-2" d="M343.18,112.12A.5.5,0,0,1,344,112l.62.5a.6.6,0,0,1,.06.82,5.57,5.57,0,0,1-10.09-3v-3.9a5.57,5.57,0,0,1,10.09-3,.61.61,0,0,1-.06.83l-.62.5a.5.5,0,0,1-.77-.09,3.82,3.82,0,0,0-2.92-1.44,3.3,3.3,0,0,0-3.39,3.15v4a3.33,3.33,0,0,0,3.39,3.18,3.82,3.82,0,0,0,2.92-1.44"/><path class="cls-2" d="M353.36,109v1c0,3,1.65,3.36,6,3.36a.5.5,0,0,1,.56.54v.88a.52.52,0,0,1-.56.56h-1.12c-4.13,0-7.17-.65-7.17-5.49v-3.45a5.6,5.6,0,0,1,11.18,0v1.51a1.12,1.12,0,0,1-1.12,1.12Zm0-1.92h6.58v-.74a3.29,3.29,0,0,0-6.58,0Z"/><path class="cls-2" d="M370.68,104.71c-.18,1.54,1.62,2.16,3.8,2.66,4.13.94,5.49,2.39,5.31,4.8-.15,2-2.24,3.48-5.57,3.48a17.72,17.72,0,0,1-4.87-.79.53.53,0,0,1-.41-.65l.15-.68a.53.53,0,0,1,.73-.38,18.81,18.81,0,0,0,4.34.59c1.86,0,3.27-.47,3.42-1.74.18-1.54-1.62-2.18-3.69-2.66-4.16-.94-5.6-2.33-5.42-4.75.14-2,2.06-3.48,5.31-3.48a16.94,16.94,0,0,1,4.74.8.52.52,0,0,1,.42.65l-.15.68a.54.54,0,0,1-.74.38,17.71,17.71,0,0,0-4.19-.62c-1.91,0-3,.44-3.18,1.71"/></g></g></svg>