<svg xmlns="http://www.w3.org/2000/svg" viewBox="0 0 356.19 351.73"><defs><style>.cls-1{fill:#fff;}</style></defs><g id="Layer_2" data-name="Layer 2"><g id="Layer_1-2" data-name="Layer 1"><g id="Layer_2-2" data-name="Layer 2"><g id="Layer_1-2-2" data-name="Layer 1-2"><g id="Layer_2-2-2" data-name="Layer 2-2"><g id="Layer_1-2-2-2" data-name="Layer 1-2-2"><circle class="cls-1" cx="20.23" cy="228.58" r="4.5"/><circle class="cls-1" cx="101.23" cy="32.58" r="4.5"/><circle class="cls-1" cx="178.23" cy="339.58" r="4.5"/><circle class="cls-1" cx="329.23" cy="113.58" r="4.5"/><path class="cls-1" d="M126.22,19.38C124,10.7,127.74,2.7,136.37.51c7.21-1.82,12.55,1.4,14.58,6.81l-5.9,1.49c-1.28-2.81-4-4.18-7.41-3.3-5.4,1.37-6.84,6.52-5.37,12.33,1.52,6,5.72,9.49,10.63,8.24,3.48-.88,5.4-3.59,5-6.75l5.81-1.48a10.69,10.69,0,0,1-1.48,7.74c-1.52,2.39-4,4.33-8.09,5.36C135.91,33,128.45,28.18,126.22,19.38Z"/><path class="cls-1" d="M156,16.56c-.49-6.44,3.72-11.76,10.42-12.27s11.66,4.1,12.15,10.55-3.72,11.76-10.41,12.27a11,11,0,0,1-12.1-9.77Q156,16.95,156,16.56Zm16.76-1.28c-.32-4.21-2.52-6.92-6-6.65s-5.26,3.28-4.94,7.49,2.48,6.88,6,6.61,5.23-3.24,4.91-7.45Z"/><path class="cls-1" d="M183.22,3.71l5.49.63-.33,2.89h.12a7.09,7.09,0,0,1,6.65-2.76A6.46,6.46,0,0,1,200.67,9h.09a7.52,7.52,0,0,1,6.89-3c4.53.52,6.75,3.76,6.2,8.45l-1.67,14.47-5.7-.66L208,14.7c.28-2.44-.79-3.83-2.89-4.08-2.39-.28-4.07,1.4-4.4,4.25l-1.45,12.5-5.7-.66,1.57-13.51c.28-2.43-.79-3.83-2.89-4.07-2.31-.26-4.07,1.4-4.4,4.25l-1.45,12.5-5.7-.66Z"/><path class="cls-1" d="M221.4,8.94l5.22,1.85-1,2.74h.12a7.09,7.09,0,0,1,7.1-1.2,6.47,6.47,0,0,1,4.4,5.67h.08a7.54,7.54,0,0,1,7.4-1.41c4.3,1.52,5.74,5.17,4.16,9.63L244,39.94,238.6,38l4.54-12.82c.82-2.3.09-3.91-1.9-4.61C239,19.78,237,21,236,23.75L231.79,35.6l-5.41-1.92,4.54-12.81c.82-2.31.09-3.91-1.9-4.62-2.19-.77-4.28.46-5.24,3.16l-4.2,11.86-5.42-1.92Z"/><path class="cls-1" d="M257.66,48.29l1.27-2.19-.11-.06a7,7,0,0,1-6.94-.41c-4.16-2.42-4.95-6.44-2.57-10.53l7.25-12.49,4.93,2.86-6.77,11.65c-1.27,2.19-1,4,1.13,5.2,2.34,1.35,4.78.43,6.22-2l6.28-10.81,5,2.88L262.44,51.07Z"/><path class="cls-1" d="M280.72,41.47l.1.08a7.06,7.06,0,0,1,7.23,1.23c3.5,2.79,3.74,7.3.79,11l-8.82,11-4.49-3.58,8.29-10.39c1.45-1.82,1.42-4-.46-5.45s-4.7-1.15-6.54,1.16l-7.66,9.6-4.49-3.58,13.51-16.93,4.39,3.5Z"/><path class="cls-1" d="M297.08,51.56l4.08,4L286,71l-4.09-4Zm6-6.08,4.09,4-3.62,3.67-4.08-4Z"/><path class="cls-1" d="M303.67,58.07l2,2.26,5.1-4.44,3.68,4.23-5.09,4.44,2.44,2.8-2.86,2.5-2.44-2.8-8.66,7.54a1.9,1.9,0,0,0-.54,2.62h0a1.7,1.7,0,0,0,.33.38c.47.55,1.14,1.25,1.14,1.25l-3.18,2.77s-.92-.93-2.42-2.65c-1.83-2.1-3-5.14.06-7.83l9.58-8.35-2-2.26Z"/><path class="cls-1" d="M295.28,85.36,296.43,87c1.28,1.88,2.78,2,4.25,1,1-.67,1.88-1.81,3.91-4.68L314,69.81l3.41,5L311.18,83c-1.25,1.68-3.11,3.82-3.11,3.82l.05.07s2.6-1.06,4.62-1.63l9.76-3L325.77,87l-22.59,6.3c-4.9,1.36-7.23,1-9.72-2.6l-1.9-2.79Z"/><path class="cls-1" d="M355.1,140.9l1.09,6.24L328.3,162.83l-1.1-6.28,6-3.11-1.88-10.72-6.67-.85-1.07-6.11Zm-19,2.42,1.38,7.86,8.1-4.16c1.49-.78,4.36-2,4.36-2v-.08s-3.12-.23-4.79-.45Z"/><path class="cls-1" d="M338.76,161.77c6.46-.11,11.51,4,11.62,10.61.1,5.61-3.09,9.13-7.76,10l-.1-5.61a4,4,0,0,0,3.27-4c-.06-3.46-2.75-5.18-6.93-5.11s-6.81,1.76-6.75,5.26a4,4,0,0,0,3.69,4.29h.06l.1,5.53c-4.61-.3-8.34-3.83-8.45-9.61C327.4,166.23,332.3,161.88,338.76,161.77Z"/><path class="cls-1" d="M339,184.6c6.41.81,10.82,5.62,10,12.16-.71,5.57-4.37,8.59-9.11,8.75l.7-5.57a4,4,0,0,0,3.81-3.51c.44-3.43-2-5.53-6.12-6.05s-7,.77-7.43,4.24a4,4,0,0,0,3,4.77h0l-.7,5.48c-4.51-1-7.7-5-7-10.71C327.12,187.38,332.59,183.78,339,184.6Z"/><path class="cls-1" d="M336,207.28c6.22,1.75,9.76,7.54,7.93,14s-7.87,9.53-14.09,7.77-9.75-7.54-7.93-14a11,11,0,0,1,13.35-8C335.51,207.13,335.76,207.2,336,207.28Zm-4.57,16.17c4.06,1.14,7.36,0,8.32-3.36s-1.27-6.06-5.33-7.21-7.32,0-8.28,3.37,1.26,6.05,5.32,7.2Z"/><path class="cls-1" d="M313.15,240l2.3,1.05.06-.12a7,7,0,0,1-.29-6.94c2-4.38,5.92-5.57,10.22-3.61l13.15,6-2.35,5.19L324,236c-2.3-1-4.05-.59-5.06,1.64-1.11,2.46,0,4.8,2.67,6L333,248.8l-2.42,5.2-19.72-8.95Z"/><path class="cls-1" d="M322.25,262.29l-.07.11a7,7,0,0,1-.49,7.31c-2.43,3.76-6.89,4.45-10.86,1.89l-11.89-7.67,3.12-4.82,11.17,7.21a3.63,3.63,0,0,0,5.09-.58c.1-.14.19-.27.28-.42,1.31-2,.68-4.79-1.81-6.39l-10.32-6.66,3.11-4.82,18.2,11.74-3,4.72Z"/><path class="cls-1" d="M314.88,278.44,313,280.75l5.21,4.3-3.57,4.33-5.21-4.29L307,288l-2.94-2.41,2.36-2.87-8.86-7.3a1.88,1.88,0,0,0-2.67-.11,1.8,1.8,0,0,0-.33.4c-.46.55-1,1.33-1,1.33l-3.26-2.69s.77-1.06,2.22-2.82c1.77-2.15,4.58-3.83,7.74-1.23l9.81,8.09,1.9-2.32Z"/><path class="cls-1" d="M281.18,286.73l.06-.06c-.35-1.95-.1-3.95,2.59-6.52,3.2-3.06,7.06-3.55,10-.44,3.3,3.44,1.54,7.23-1.46,11.05-2.24,2.84-3.23,4.2-2.09,5.39s2.67,1,4.4-.66c1.95-1.87,2.23-3.47.92-5.08l3.69-3.54c2.5,2.86,2.77,7.23-1.8,11.61s-8.6,4.2-12.11.55l-7.62-8c-1.14-1.19-2-1.71-2.62-1.64l-.15-.15,4-3.82A5.82,5.82,0,0,1,281.18,286.73Zm3.59,3.8,2.25,2.35a15.89,15.89,0,0,1,2-3.69c1.69-2.56,2.29-4.07.89-5.53s-2.87-1.05-4.34.35C283.22,286.29,283.31,289,284.77,290.53Z"/><path class="cls-1" d="M270.62,295.9h.06l-1.56-2.21,4.52-3.19,17.44,24.63-4.68,3.31L280,309.3l-.11.07a6.74,6.74,0,0,1-3.07,6.11c-4.44,3.15-10.32,1.57-14.23-3.94-4-5.72-3.58-11.48.87-14.63A7.18,7.18,0,0,1,270.62,295.9Zm-3.31,12.27c2.32,3.27,5.24,4.62,7.85,2.76,3-2.09,2.38-5.25.07-8.52s-5.38-4.16-8-2.31c-2.41,1.71-2.34,4.66.08,8.07Z"/><path class="cls-1" d="M265,322.28l-5,2.8-10.55-18.92,5-2.8Zm4.15,7.45-5,2.79L261.62,328l5-2.8Z"/><path class="cls-1" d="M259.51,334.92l-5.18,2.48-13.06-27.21,5.18-2.49Z"/><path class="cls-1" d="M246.38,331.6l-5.32,2.17-8.17-20.06,5.32-2.17Zm3.21,7.9-5.32,2.17-1.94-4.77,5.32-2.17Z"/><path class="cls-1" d="M237.8,335.1l-2.8.9,2.08,6.43-5.35,1.72-2.07-6.42-3.54,1.14L225,335.25l3.54-1.14L225,323.19a1.9,1.9,0,0,0-2.19-1.56h0a1.87,1.87,0,0,0-.52.17c-.68.22-1.59.56-1.59.56l-1.3-4s1.22-.48,3.39-1.18c2.65-.86,5.92-.76,7.18,3.13l3.91,12.09,2.85-.92Z"/><path class="cls-1" d="M216,316.65l-2,.4c-2.24.45-2.92,1.79-2.57,3.53.24,1.16.93,2.44,2.78,5.43L223,340l-6,1.16-5-8.93c-1.05-1.81-2.3-4.36-2.3-4.36h-.08a39.84,39.84,0,0,1-.31,4.88l-1.06,10.16-5.67,1.14,3-23.26c.67-5,1.9-7.05,6.2-7.92l3.31-.67Z"/><path class="cls-1" d="M149.48,351.73,136,348.55c-5.67-1.34-8.67-5.52-7.52-10.41.81-3.45,3-5.7,7.06-5.84v-.12c-2.53-1.42-3.56-3.31-3.09-7,.57-4.25,1.48-7.37.56-8.07l.07-.29,5.71,1.35c.66.5,0,3.81-.53,7s.87,5.5,4.57,6.37l4.81,1.14,2.78-11.8,6,1.41Zm-2.9-14.39-6.33-1.5c-3.24-.76-5.24.55-5.79,2.89s.54,4.51,3.7,5.25l6.5,1.53Z"/><path class="cls-1" d="M128.34,326.52c-2.45,5.93-8.37,8.88-14.22,6.46-6.44-2.66-7.84-9-4.9-16.13l14.52,6c.88-3.25,0-5.87-3-7.11a4.07,4.07,0,0,0-4.88.87l-5.23-2.16c2.21-3.25,6.61-4.95,11.76-2.82C129,314.36,130.8,320.55,128.34,326.52Zm-6.19,0-8.9-3.67c-.89,2.6.06,5,2.48,6,2.81,1.1,4.87,0,6.42-2.43Z"/><path class="cls-1" d="M108.94,314.18l-4.59-2.68c.93-2.34,0-4.19-2.27-5.49s-3.91-1.17-4.68.15c-1.05,1.78,1.21,3.35,3.46,5.35,3,2.62,5.72,5.45,3.33,9.53s-6.85,4-11.11,1.52c-4.92-2.89-6.22-6.92-4.39-10.89l4.48,2.62c-1,2.14-.11,3.61,2,4.85,1.93,1.13,3.63,1.15,4.42-.2.94-1.6-1.46-3.2-3.79-5.3-2.75-2.49-5.7-5.39-3.14-9.76,2.2-3.76,6.72-4.14,11.38-1.41C109.48,305.65,111,310,108.94,314.18Z"/><path class="cls-1" d="M81,314.5l-4.33-3.45,1.68-2.11-.1-.08a7.53,7.53,0,0,1-7-1.39c-4.5-3.58-4.45-9.53-.25-14.82,4.37-5.48,10.1-6.58,14.46-3.11a7,7,0,0,1,3,6.3l.07.05,5.94-7.47L98.94,292Zm-5.36-18.35c-2.55,3.2-3.22,6.34-.44,8.55s5.85.72,8.27-2.32,2.62-6.22,0-8.35c-2.24-1.81-5.19-1.09-7.74,2.12Z"/><path class="cls-1" d="M69.4,291.15c-4.71,4.36-11.32,4.55-15.62-.09-4.74-5.11-3.36-11.45,2.31-16.7l10.67,11.52c2.16-2.58,2.41-5.35.21-7.73a4.07,4.07,0,0,0-4.8-1.26l-3.84-4.15c3.36-2,8.07-1.72,11.86,2.37C75.07,280.37,74.13,286.76,69.4,291.15Zm-5.61-2.64-6.54-7.06c-1.9,2-2.06,4.61-.28,6.53C59,290.21,61.37,290.06,63.79,288.51Z"/><path class="cls-1" d="M53.58,273.74c-5.32,3.65-11.82,3-15.54-2.45-3.18-4.63-2.45-9.32,1-12.59l3.18,4.63a4,4,0,0,0-.51,5.16c2,2.85,5.15,2.81,8.6.45S55,263.71,53,260.82a4.06,4.06,0,0,0-5.49-1.51l-3.13-4.56c4-2.29,9.07-1.4,12.34,3.37C60.61,263.76,58.91,270.09,53.58,273.74Z"/><path class="cls-1" d="M31.54,260.06l-1.39-2.65-6,3.14-2.61-5,6-3.14-1.73-3.29,3.37-1.77,1.73,3.29,10.16-5.35a1.88,1.88,0,0,0,1.16-2.41h0a1.93,1.93,0,0,0-.26-.49c-.33-.64-.82-1.48-.82-1.48l3.73-2s.69,1.12,1.75,3.14c1.3,2.47,1.76,5.7-1.87,7.61l-11.24,5.92,1.4,2.65Z"/><path class="cls-1" d="M1.87,200.58,0,178.46,5.13,178l1.36,16,6.73-.57-1.19-14,5-.42,1.19,14,8.12-.68L25,176.22l5.09-.43L31.94,198Z"/><path class="cls-1" d="M8.17,171.34l.62-5.5,2.89.33v-.12a7.06,7.06,0,0,1-2.77-6.65,6.46,6.46,0,0,1,4.45-5.52v-.08a7.56,7.56,0,0,1-3-6.89c.52-4.53,3.74-6.76,8.44-6.22l14.47,1.65-.65,5.7-13.5-1.54c-2.44-.27-3.83.8-4.07,2.89-.27,2.4,1.4,4.07,4.26,4.4l12.49,1.42-.65,5.7-13.5-1.53c-2.43-.28-3.83.79-4.07,2.89-.26,2.31,1.41,4.07,4.26,4.39l12.5,1.43-.65,5.7Z"/><path class="cls-1" d="M13.6,133.76l1.65-5.28,2.58.81v-.12a7.56,7.56,0,0,1-1.24-7.07c1.72-5.48,7.29-7.58,13.73-5.56,6.69,2.09,9.78,7,8.12,12.36a7,7,0,0,1-4.81,5v.1l9.11,2.85L41,142.35Zm15.18-11.61c-3.91-1.23-7.07-.72-8.13,2.67s1.44,5.71,5.14,6.87,6.75.21,7.77-3.05C34.43,125.86,32.69,123.37,28.78,122.15Z"/><path class="cls-1" d="M44.9,105.58v.07c1,1.71,1.46,3.67-.16,7-1.93,4-5.38,5.79-9.26,3.92-4.29-2.08-4-6.24-2.48-10.87,1.11-3.45,1.56-5.06.08-5.78s-2.85,0-3.9,2.15c-1.18,2.43-.88,4,.91,5.09l-2.22,4.59c-3.35-1.8-5.12-5.8-2.36-11.5s6.59-6.94,11.15-4.73l9.92,4.8c1.49.71,2.47.91,3,.62l.19.09-2.41,5A5.78,5.78,0,0,1,44.9,105.58Zm-4.69-2.32-2.93-1.42a16.35,16.35,0,0,1-.6,4.17c-.7,3-.74,4.61,1.09,5.5s3.06,0,3.94-1.85C43.14,106.7,42.11,104.18,40.21,103.26Z"/><path class="cls-1" d="M31.83,89.24l1.59-2.53L27.71,83.1l3-4.75L36.42,82l2-3.14,3.22,2-2,3.15,9.71,6.12A1.89,1.89,0,0,0,52,90a2,2,0,0,0,.32-.5c.39-.61.87-1.45.87-1.45l3.57,2.25s-.63,1.15-1.84,3.08c-1.49,2.36-4.06,4.38-7.53,2.19l-10.78-6.8L35,91.27Z"/><path class="cls-1" d="M46.77,72.2l.08-.1a6.89,6.89,0,0,1,1.31-7c2.82-3.47,7.33-3.67,11-.69l11,8.92-3.62,4.45L56.19,69.36c-1.8-1.46-3.93-1.45-5.44.42s-1.2,4.68,1.1,6.54l9.53,7.75-3.62,4.45-23.43-19L38,65Z"/><path class="cls-1" d="M73.75,73.35,75.23,72c1.67-1.55,1.55-3,.34-4.35-.81-.86-2.07-1.59-5.21-3.17L55.6,57.15,60,53l9,5c1.85,1,4.24,2.51,4.24,2.51l.06-.06S71.88,58,71,56.11L66.6,46.9,70.83,43l9.6,21.4c2.08,4.64,2.08,7-1.13,10l-2.47,2.3Z"/><path class="cls-1" d="M101.74,175c0-10.18,6.34-18,16.47-18,8.45,0,13.44,5,14.16,11.57h-6.91c-.63-3.46-3.22-5.71-7.25-5.71-6.34,0-9.36,5.28-9.36,12.1,0,7,3.65,12,9.41,12,4.08,0,7-2.44,7.39-6h6.82a12.17,12.17,0,0,1-3.8,8.11c-2.35,2.21-5.66,3.65-10.41,3.65C108.61,192.73,101.74,185.29,101.74,175Z"/><path class="cls-1" d="M134.43,185.05h7v7h-7Z"/><path class="cls-1" d="M156,157.68h7.2L175.28,192H168l-2.3-7.3H153.34l-2.25,7.3H144Zm-1,21.7h9.07L161,169.49c-.58-1.82-1.4-5.28-1.4-5.28h-.09s-.87,3.46-1.44,5.28Z"/><path class="cls-1" d="M178,185.05h7v7h-7Z"/><path class="cls-1" d="M189.34,157.68h15.75c6.62,0,11,3.84,11,9.56,0,4-1.87,7.1-6.29,8.3v.15c3.17.91,4.8,2.73,5.23,6.91.48,4.85.29,8.54,1.49,9.07V192h-6.67c-.87-.39-1-4.23-1.25-7.92s-2.4-5.86-6.72-5.86H196.3V192h-7Zm7,15.17h7.4c3.79,0,5.66-2,5.66-4.7s-1.78-4.85-5.47-4.85H196.3Z"/><path class="cls-1" d="M220.16,185.05h7v7h-7Z"/><path class="cls-1" d="M231.53,157.68h25.25v5.86H238.49v7.68h16v5.71h-16v9.27h18.44V192h-25.4Z"/></g></g></g></g></g></g></svg>