<svg xmlns="http://www.w3.org/2000/svg" viewBox="0 0 356.1 359.87"><g id="Layer_2" data-name="Layer 2"><g id="Layer_1-2" data-name="Layer 1"><path d="M232.53,156.85A6.25,6.25,0,0,1,231,144.53a6.25,6.25,0,0,1,7.56,4.58,6.26,6.26,0,0,1-4.58,7.56A6.39,6.39,0,0,1,232.53,156.85Zm0-9.5a3,3,0,0,0-.79.1,3.21,3.21,0,0,0-2,1.47,3.26,3.26,0,0,0-.38,2.46h0a3.25,3.25,0,1,0,4.84-3.56A3.22,3.22,0,0,0,232.54,147.35Z"/><path d="M118.27,8l24.48-6.38,1.36,5.2L135,9.22l6.58,25.25-6.17,1.61-6.58-25.25-9.16,2.39Z"/><path d="M157.55,11.79h.13a7.19,7.19,0,0,1,6.23-4.1c4.65-.4,8.06,2.85,8.47,7.76l1.25,14.68-6,.51L166.5,16.82c-.21-2.41-1.76-4-4.26-3.79s-4.38,2.49-4.12,5.56l1.09,12.76-6,.51L150.58.51l6-.51Z"/><path d="M177,18.78c.51-6.67,5.43-11.5,12-11,7.24.56,10.68,6.39,10.06,14.42L182.71,21c.18,3.5,1.94,5.79,5.32,6.06a4.23,4.23,0,0,0,4.56-2.43l5.87.45c-1.14,3.93-5,7-10.74,6.59C180.26,31,176.45,25.49,177,18.78Zm6.15-2,10,.77c0-2.86-1.68-5-4.4-5.19C185.56,12.16,183.88,13.93,183.12,16.83Z"/><path d="M228.9,27.34,225.83,5.59,232.34,8l1.2,10.4c.25,2.11.37,4.93.37,4.93l.09,0s2-2,3.54-3.47l7.63-7.11,6.26,2.33L234.88,29.57,230.64,41l-6-2.23Z"/><path d="M251,48l-.07,0c-1.83,1-3.88,1.36-7.29-.47-4.07-2.19-5.79-5.87-3.67-9.82,2.36-4.38,6.67-3.85,11.42-2.1,3.55,1.31,5.2,1.85,6,.34s.15-3-2.06-4.16c-2.48-1.33-4.16-1.09-5.34.73l-4.69-2.52c2-3.41,6.28-5.07,12.09-1.94,6,3.21,6.93,7.17,4.43,11.82L256.39,49.9c-.82,1.52-1.06,2.53-.79,3.13l-.1.2-5.08-2.74A6.23,6.23,0,0,1,251,48Zm2.63-4.78,1.6-3a16.63,16.63,0,0,1-4.3-.81c-3.09-.86-4.78-1-5.78.89s-.12,3.18,1.75,4.18C249.91,46.07,252.57,45.1,253.62,43.17Z"/><path d="M273.71,43.08l.11.07c2.6-1.28,4.62-1.45,6.76.09a3.82,3.82,0,0,1,1,1l-3.05,4.26-.11-.08c-2.95-2.61-6.44-2.57-9.21,1.29l-6.41,8.94L258,55.12l13.16-18.34,4.68,3.37Z"/><path d="M273.14,60.37l17.45-1.76.09-.1-7.55-7,3.2-3.46L299,59.78l-3.25,3.52L278.67,65l-.09.09,8.75,8.1-3.26,3.52-14-13Z"/><path d="M303.07,64.45,307,69,290,83.79l-3.93-4.51Zm6.7-5.84,3.93,4.51-4.05,3.52-3.93-4.51Z"/><path d="M312.19,80.56l.07.11a7.33,7.33,0,0,1,6.83,3.43c2.64,3.85,1.5,8.42-2.57,11.2l-12.16,8.33L301,98.69l11.43-7.83c2-1.37,2.62-3.5,1.2-5.57s-4.32-2.58-6.87-.84l-10.56,7.24-3.38-4.94L311.42,74l3.31,4.83Z"/><path d="M322.17,117.07l2,5.93c-3.45,1.61-4.2,4.13-2.79,8.39,1,3.09,3,5.44,5.77,4.53,2.92-1,2.57-4,2.1-8.9-.56-5.75-.75-11.1,5.47-13.16,5.89-2,10.53,1.84,12.73,8.48s.37,12.16-5.5,14.61l-1.92-5.8c2.9-1.33,3.62-4.17,2.6-7.26-1.08-3.26-3.16-4.93-5.29-4.23-2.42.8-2.44,3.13-1.94,7.87.7,6.59.9,12.08-5.54,14.21-6.05,2-11.05-1.76-13.28-8.48C313.87,125.15,315.94,119.37,322.17,117.07Z"/><path d="M332.61,145.06c6.61-1,12.41,2.74,13.37,9.27,1.06,7.18-3.86,11.82-11.82,13l-2.39-16.19c-3.37.94-5.22,3.17-4.73,6.52a4.22,4.22,0,0,0,3.38,3.91l.86,5.83c-4.08-.24-7.95-3.28-8.8-9C321.39,151,326,146,332.61,145.06Zm3.26,5.56,1.47,9.92c2.8-.59,4.48-2.75,4.09-5.45C341,152,338.87,150.71,335.87,150.62Z"/><path d="M355.92,170.84l.18,6-31.45,1-.18-6Z"/><path d="M356.06,183.6l-.24,6-31.43-1.28.24-6Z"/><path d="M324.76,206.24v-.09c-1.52-1.39-2.57-3.2-2-7,.71-4.57,3.6-7.41,8-6.73,4.92.76,5.86,5,5.79,10.07-.05,3.78,0,5.52,1.69,5.78s2.85-.85,3.23-3.32c.43-2.79-.36-4.29-2.46-4.8l.81-5.26c3.89.78,6.87,4.23,5.86,10.75-1,6.7-4.45,8.93-9.67,8.12L324.72,212c-1.7-.27-2.74-.16-3.21.3l-.22,0,.88-5.7A6.07,6.07,0,0,1,324.76,206.24Zm5.39.88,3.35.51a16.54,16.54,0,0,1-.67-4.33c-.22-3.19-.68-4.82-2.77-5.15s-3,1-3.36,3C326.17,204.59,328,206.78,330.15,207.12Z"/><path d="M310.79,264.23l-3.39,4.6c-3-2-6-2.17-8.45,1.16-2,2.69-1.71,5.36.77,7.18s4.85,1.28,7-1.69l1.09-1.49,3.65,2.69-1,1.38c-1.69,2.3-1.72,4.79.33,6.31s4.16,1,5.72-1.09c2-2.77,1.22-5.44-1.21-7.4l3.39-4.61c4.65,3.7,5.66,9.09,1.51,14.72-3.74,5.07-8.65,6.48-12.69,3.5-2.73-2-3-4.92-2.05-7.9l-.07-.06c-3,2.54-6.36,2.92-9.72.44-5-3.71-4.42-9.65-.74-14.65C299.58,261.05,305.42,260.38,310.79,264.23Z"/><path d="M297.41,289.09c3.72,3.81,5.95,7.65,6.11,11.7.13,2.93-.89,5.68-3.84,8.51-4.35,4.18-9.23,4.3-12.88,1.58l4.16-4c1.59,1,3.49,1.09,5.39-.73,3.18-3.05,2.41-6.89-1.28-10.73l-.06.06a8.49,8.49,0,0,1-2.94,7.16,10.46,10.46,0,0,1-15-.52c-4.3-4.48-3.76-11,.78-15.39C284,280.77,291.68,283.25,297.41,289.09Zm-16.3,9a5.72,5.72,0,0,0,8.27.42c2.67-2.56,2.48-5.86.08-8.37a5.76,5.76,0,1,0-8.35,8Z"/><path d="M276.89,308.9c5.32,8,4.55,15.88-1.83,20.11s-13.81,1.86-19.16-6.21-4.74-15.76,1.79-20.08S271.59,300.9,276.89,308.9Zm-15.78,10.45c3.52,5.32,7.42,7.86,11.13,5.4s3-7-.56-12.4-7.46-7.83-11.2-5.35S257.54,314,261.11,319.35Z"/><path d="M201.39,342.33c.67,9.3-4.62,16.83-13.88,17.49-7.72.56-12.62-3.73-13.7-9.65l6.32-.45c.79,3.12,3.31,5,7,4.75,5.79-.42,8.21-5.44,7.77-11.68-.46-6.4-4.13-10.77-9.4-10.4-3.73.27-6.2,2.7-6.36,6l-6.23.44a11.12,11.12,0,0,1,2.94-7.66c2-2.18,4.94-3.71,9.28-4C194,326.54,200.72,332.89,201.39,342.33Z"/><path d="M155.45,326.77l-.29,2.63h.13a7.29,7.29,0,0,1,6.79-2.53c5,.55,7.43,4.05,6.9,8.95l-1.65,15-5.9-.65L163,336.19c.29-2.63-.73-4.2-3.27-4.48-2.8-.31-4.74,1.61-5.06,4.58l-1.42,12.95-6-.66,2.46-22.43Z"/><path d="M138.68,355.72l-5.83-1.33,7-30.67,5.83,1.33Z"/><path d="M126.38,352.67l-5.73-1.75,1.57-5.13,5.72,1.74Zm2.58-8.51-5.72-1.74,6.56-21.59,5.73,1.74Z"/><path d="M112.73,335.36l-.12-.05a7.33,7.33,0,0,1-7.6.73c-4.28-1.86-5.74-6.33-3.78-10.86l5.87-13.51,5.49,2.38-5.52,12.71c-1,2.22-.36,4.36,1.94,5.36s5-.12,6.27-2.94l5.1-11.75,5.49,2.39-9,20.7-5.37-2.33Z"/><path d="M91.2,304.79l.07,0c1.89-.84,4-1.08,7.24,1,3.9,2.48,5.35,6.27,2.94,10.06-2.67,4.19-6.94,3.36-11.55,1.26-3.44-1.56-5.05-2.22-6-.77s-.36,2.95,1.75,4.29c2.38,1.51,4.07,1.39,5.38-.33l4.49,2.85c-2.27,3.25-6.62,4.6-12.19,1.06S77,316.6,79.8,312.14L86,302.45c.92-1.45,1.24-2.44,1-3.06l.11-.18L92,302.3A6.12,6.12,0,0,1,91.2,304.79Zm-3,4.58-1.81,2.86a17,17,0,0,1,4.23,1.13c3,1.08,4.69,1.31,5.83-.47s.34-3.17-1.44-4.3C92.14,306.75,89.41,307.52,88.23,309.37Z"/><path d="M68.19,308l-.1-.08c-2.68,1.08-4.71,1.11-6.73-.58a3.69,3.69,0,0,1-1-1l3.35-4,.1.09c2.76,2.81,6.24,3,9.29-.62l7.05-8.44,4.59,3.83L70.31,314.47l-4.43-3.7Z"/><path d="M74.35,284.81l-1.44-1.55c-1.62-1.74-3.18-1.61-4.53-.36-.91.84-1.67,2.15-3.32,5.42l-7.65,15.37-4.28-4.62,5.18-9.36c1-1.92,2.63-4.41,2.63-4.41l-.06-.07s-2.52,1.49-4.51,2.38l-9.61,4.59-4.1-4.42,22.33-10c4.84-2.15,7.3-2.15,10.42,1.21l2.39,2.58Z"/><path d="M20.63,271.73,10.06,251.14l4.78-2.45,7.65,14.91,6.27-3.21-6.71-13.08,4.66-2.39L33.42,258,41,254.12l-7.71-15L38,236.66l10.63,20.71Z"/><path d="M23.5,230.79,15.61,241l-2.06-6.5,4.95-5.77,0-.08L11.17,227,9.3,221.08l12.18,3.48,9-11.3,2.15,6.79-5.87,6.24,0,.09,8.6,2.4,2,6.25Z"/><path d="M7.73,214.43l-.83-5.71,2.79-.4,0-.14a7.9,7.9,0,0,1-4.36-6.07c-.87-5.93,3.41-10.42,10.38-11.44,7.23-1.06,12.37,2.19,13.21,7.94a7.26,7.26,0,0,1-2.23,6.91v.09l9.84-1.44.87,5.92Zm9-17.78c-4.22.62-7,2.53-6.43,6.19s3.94,4.72,7.94,4.13,6.43-2.85,5.92-6.38C23.73,197.59,21,196,16.74,196.65Z"/><path d="M15.49,187.28c-6.69-.13-11.79-4.77-11.66-11.37.15-7.26,5.77-11,13.82-10.86l-.33,16.37c3.49-.37,5.68-2.27,5.75-5.65a4.23,4.23,0,0,0-2.69-4.41l.12-5.9c4,.92,7.3,4.55,7.19,10.36C27.54,183.29,22.22,187.41,15.49,187.28Zm-2.3-6,.2-10c-2.87.12-4.88,2-4.94,4.7C8.39,179.08,10.25,180.66,13.19,181.25Z"/><path d="M10,153.87l0-.13c-2.31-1.73-3.38-3.46-3-6.07a4,4,0,0,1,.39-1.36l5.17.8,0,.13c-1,3.81.63,6.9,5.33,7.63l10.87,1.67-.92,5.92L5.53,159l.88-5.7Z"/><path d="M0,139.35l1.43-5.81,5.21,1.28-1.43,5.81Zm8.63,2.12,1.43-5.81L32,141l-1.42,5.82Z"/><path d="M21.81,134.14c-6.27-2.32-9.56-8.38-7.27-14.56,2.53-6.81,9.07-8.51,16.62-5.71l-5.69,15.34c3.41.8,6.1-.27,7.28-3.44a4.23,4.23,0,0,0-1.08-5l2-5.53c3.46,2.18,5.4,6.7,3.38,12.14C34.5,134.34,28.12,136.48,21.81,134.14Zm-.19-6.45,3.49-9.4c-2.74-.83-5.26.25-6.21,2.81C17.8,124.07,19,126.17,21.62,127.69Z"/><path d="M27.27,100.11l.06-.11a7.32,7.32,0,0,1,.08-7.64c2.3-4.06,6.9-5,11.19-2.62L51.43,97l-3,5.21L36.42,95.38c-2.11-1.19-4.3-.81-5.53,1.37s-.42,5,2.26,6.54L44.3,109.6l-2.95,5.21L21.7,103.69l2.89-5.09Z"/><path d="M44,87.91C38.7,83.71,37.38,77,41.66,71.66c3.64-4.57,8.54-5.28,12.86-2.86l-3.65,4.58a4.13,4.13,0,0,0-5.3,1.07c-2.24,2.82-1.23,6,2.18,8.71s6.65,3.09,8.92.24a4.21,4.21,0,0,0-.17-5.93L60.09,73c3.51,3.3,4.17,8.61.41,13.32C56.06,91.86,49.23,92.1,44,87.91Z"/><path d="M59.64,68.53c-4.51-4.93-4.66-11.82.21-16.27,5.36-4.9,11.95-3.42,17.38,2.52l-12.08,11c2.67,2.27,5.55,2.56,8.06.27a4.21,4.21,0,0,0,1.34-5l4.35-4c2.09,3.52,1.74,8.43-2.55,12.34C70.83,74.52,64.18,73.5,59.64,68.53Zm2.79-5.82L69.83,56c-2.06-2-4.79-2.18-6.8-.34C60.69,57.74,60.83,60.18,62.43,62.71Z"/><path d="M122.3,183h7.28c.28,4.59,2.3,7.78,7.56,7.78,4.26,0,6.78-2.29,6.78-6.21,0-3.7-2.36-5.94-7.06-5.94h-2.35v-5.77h2.18c3.64,0,6.22-1.84,6.22-5.09,0-3-2.07-5-5.43-5-4.37,0-6.5,2.85-6.67,6.83h-7.28c.28-7.56,5-12.66,13.95-12.66,8,0,13.16,4,13.16,10.36,0,4.32-2.75,6.84-6.56,8.07v.11c4.88,1.18,7.79,4.31,7.79,9.63,0,7.95-6.55,11.82-14.45,11.82C127.51,196.84,122.41,191.35,122.3,183Z"/><path d="M157.69,177.41c-.05-6.78,1.29-12.27,4.71-16.13,2.46-2.8,5.82-4.43,11-4.43,7.67,0,12.26,4.2,13.21,9.92h-7.33c-.56-2.36-2.24-4.09-5.6-4.09-5.6,0-8.29,4.2-8.29,11h.11a10.8,10.8,0,0,1,9-4,13.31,13.31,0,0,1,13.33,13.72c0,7.89-6.28,13.44-14.28,13.44C162.62,196.84,157.8,187.82,157.69,177.41Zm22.91,6.1c0-4.37-3.08-7.67-7.23-7.67-4.7,0-7.45,3.19-7.45,7.61a7.34,7.34,0,1,0,14.68.06Z"/><path d="M193.64,176.85c0-12.27,6.33-20,16.08-20,9.91,0,16,7.73,16,20s-6.05,20-16,20C199.86,196.89,193.64,189.05,193.64,176.85Zm24.08,0c0-8.12-2.35-13.56-8-13.56s-8.12,5.38-8.12,13.56,2.4,13.55,8.12,13.55S217.72,185.08,217.72,176.85Z"/><circle cx="98.13" cy="34.51" r="4.75"/><circle cx="325.14" cy="245.38" r="4.75"/><circle cx="229.31" cy="333.12" r="4.75"/></g></g></svg>