<svg xmlns="http://www.w3.org/2000/svg" viewBox="0 0 379.76 77.75"><g id="Layer_2" data-name="Layer 2"><g id="Layer_1-2" data-name="Layer 1"><g id="Layer_2-2" data-name="Layer 2"><g id="Layer_1-2-2" data-name="Layer 1-2"><g id="Layer_2-2-2" data-name="Layer 2-2"><g id="Layer_1-2-2-2" data-name="Layer 1-2-2"><g id="Layer_2-2-2-2" data-name="Layer 2-2-2"><g id="Layer_1-2-2-2-2" data-name="Layer 1-2-2-2"><polygon points="11.99 52.18 0 0.01 10.32 0.01 16.98 36.64 23.64 0.01 33.97 0.01 21.98 52.18 21.98 77.71 11.99 77.71 11.99 52.18"/><path d="M58.27,62.51H47.18l-1.56,15.2h-10L43.84,0H61.6l8,77.7H59.82Zm-10-10h8.88L52.72,10Z"/><path d="M94.72,44.75H86.29v33h-10V0H96.83a6.67,6.67,0,0,1,6.67,6.66v27.1c0,2.77-1.45,4.88-3.45,5.44,3,.66,4.67,3.77,4.67,6.55v32h-10Zm-8.43-10H93.5V10H86.29Z"/><polygon points="131.17 10 112.19 10 112.19 0.01 141.27 0.01 141.27 12.22 121.4 67.73 141.27 67.73 141.27 77.71 110.86 77.71 110.86 67.73 131.17 10"/><rect x="148.59" y="0.01" width="9.99" height="77.71"/><polygon points="180.84 0.01 190.39 38.64 190.39 0.01 200.38 0.01 200.38 77.71 188.61 77.71 178.62 35.98 178.62 77.71 168.63 77.71 168.63 0.01 180.84 0.01"/><path d="M232.35,54.29V67.73h8.43V42.64H229a6.65,6.65,0,0,1-6.65-6.55V6.67a6.33,6.33,0,0,1,6-6.66H244.1a6.46,6.46,0,0,1,6.67,6.24V22.88h-10V10h-8.43V32.65H244.1a6.67,6.67,0,0,1,6.67,6.66V71.17a6.66,6.66,0,0,1-6.67,6.55H229a6.73,6.73,0,0,1-6.65-6.55V54.29Z"/><polygon points="285.07 77.71 259.32 77.71 259.32 0.01 284.3 0.01 284.3 10 269.31 10 269.31 31.43 279.86 31.43 279.86 41.42 269.31 41.42 269.31 67.73 285.07 67.73 285.07 77.71"/><polygon points="292.51 0.01 302.5 0.01 302.5 67.73 314.26 67.73 314.26 77.71 292.51 77.71 292.51 0.01"/><polygon points="320.48 0.01 330.47 0.01 330.47 67.73 342.24 67.73 342.24 77.71 320.48 77.71 320.48 0.01"/><path d="M368.43,62.51h-11.1l-1.55,15.2h-10L354,0h17.76l8,77.7H370Zm-10-10h8.88L362.88,10Z"/></g></g></g></g></g></g></g></g></svg>