<svg xmlns="http://www.w3.org/2000/svg" viewBox="0 0 224 211.92"><defs><style>.cls-1,.cls-2{fill:none;stroke-linecap:round;stroke-linejoin:round;stroke-width:4px;}.cls-1{stroke:#fc3;}.cls-2{stroke:#000;}</style></defs><g id="Layer_2" data-name="Layer 2"><g id="Layer_1-2" data-name="Layer 1"><path class="cls-1" d="M152.05,209.92,155,139.25l-6.73-5.51V89.49h.06V77.63a6.12,6.12,0,0,1,6.12-6.12h0a6.12,6.12,0,0,1,6.12,6.12V89.54l.33,8V68a6.12,6.12,0,0,1,12.24,0V60.07A6.12,6.12,0,0,1,179.23,54h0a6.12,6.12,0,0,1,6.12,6.12V68a6.12,6.12,0,0,1,12.24,0V89.7h.07l-.06,8.13,0-1.59-.05,12.58s5.21-2,5.66-2.25c.61-.28,4.75-5.43,7.19-8.83a6.16,6.16,0,0,1,10.91,5.74l-9.08,12.7-21.07,23.15,2.94,70.59"/><line class="cls-1" x1="185.35" y1="68.02" x2="185.35" y2="91.8"/><line class="cls-1" x1="173.14" y1="68.02" x2="173.14" y2="93.22"/><path class="cls-1" d="M197.69,108.79a24.88,24.88,0,0,0-14.79,13.46"/><path class="cls-1" d="M55.46,209.92l-2.23-32.45,5.14-4.21V139.44h0v-9.06a4.67,4.67,0,0,0-4.67-4.68h0A4.67,4.67,0,0,0,49,130.38v9.1l-.25,6.12V123a4.68,4.68,0,0,0-9.36,0V117a4.68,4.68,0,0,0-4.68-4.68h0A4.68,4.68,0,0,0,30,117V123a4.68,4.68,0,0,0-9.36,0V139.6h0l0,6.21V144.6l0,9.61s-4-1.56-4.32-1.72-3.64-4.14-5.5-6.75a4.71,4.71,0,0,0-8.34,4.39l6.94,9.71,16.1,17.69-2.24,32.39"/><line class="cls-1" x1="30.01" y1="123.03" x2="30.01" y2="141.21"/><line class="cls-1" x1="39.34" y1="123.03" x2="39.34" y2="142.29"/><path class="cls-1" d="M20.58,154.19a19,19,0,0,1,11.3,10.29"/><path class="cls-2" d="M131.78,209.92l-4.07-88.85,9.39-7.7V51.6H137V35.05a8.54,8.54,0,0,0-8.54-8.54h0a8.54,8.54,0,0,0-8.54,8.54V51.68l-.46,11.17V21.64a8.55,8.55,0,1,0-17.09,0V10.54A8.55,8.55,0,0,0,93.84,2h0a8.55,8.55,0,0,0-8.55,8.54v11.1a8.54,8.54,0,1,0-17.08,0V51.9h-.09l.08,11.34,0-2.21.07,17.56s-7.27-2.86-7.9-3.14c-.85-.39-6.63-7.58-10-12.33a8.6,8.6,0,1,0-15.22,8L47.81,88.86l29.4,32.31-4.1,88.75"/><line class="cls-2" x1="85.29" y1="21.64" x2="85.29" y2="54.84"/><line class="cls-2" x1="102.34" y1="21.64" x2="102.34" y2="56.81"/><path class="cls-2" d="M68.08,78.54a34.8,34.8,0,0,1,20.64,18.8"/></g></g></svg>