<svg xmlns="http://www.w3.org/2000/svg" viewBox="0 0 161.09 278.22"><defs><style>.cls-1,.cls-2{fill:none;stroke-linecap:round;stroke-linejoin:round;stroke-width:4px;}.cls-1{stroke:#fc3;}.cls-2{stroke:#1e1e1e;}</style></defs><g id="Layer_2" data-name="Layer 2"><g id="Layer_1-2" data-name="Layer 1"><path class="cls-1" d="M148.65,132.62c6.06-12.3,6.83-28.35-2.5-46.31C127.88,51.12,80.89,32.85,114.83,2c0,0-66.39,20.91-43.32,65.34,9.14,17.6,27.66,31.76,19.82,47.76"/><path class="cls-1" d="M58.31,92.62c14.24-31.34-26.75-46.1-26.75-46.1,21,21.77-8.06,34.66-19.35,59.49-5,11-4.78,20.59-1.49,28.41"/><path class="cls-1" d="M113.35,68.11c-.87-1-1.74-1.92-2.61-2.86"/><path class="cls-1" d="M136.49,108.09a63.27,63.27,0,0,0-6-16.56,89.56,89.56,0,0,0-8.11-12.63"/><path class="cls-1" d="M27.36,110.89a31.22,31.22,0,0,0-2.19,9.53"/><path class="cls-1" d="M35.48,96.89c-.55.75-1.09,1.52-1.62,2.3"/><path class="cls-2" d="M78.6,275C75.48,273.15,2,228,2,180.21a41.82,41.82,0,0,1,78.54-20,41.82,41.82,0,0,1,78.55,20c0,47.8-73.48,92.94-76.61,94.83l-1.94,1.18Z"/><path class="cls-2" d="M117.27,164.11a16.12,16.12,0,0,1,16.1,16.1"/></g></g></svg>