<svg xmlns="http://www.w3.org/2000/svg" viewBox="0 0 208.54 264"><defs><style>.cls-1,.cls-2{fill:none;stroke-linecap:round;stroke-linejoin:round;stroke-width:4px;}.cls-1{stroke:#1e1e1e;}.cls-2{stroke:#fc3;}</style></defs><g id="Layer_2" data-name="Layer 2"><g id="Layer_1-2" data-name="Layer 1"><path class="cls-1" d="M62.62,211.93c19.57,13.27,41.65,27.83,41.65,27.83h0"/><path class="cls-1" d="M188,65.16c-38.63,2.69-83.68-37.63-83.7-37.65h0S59.19,67.85,20.57,65.16v89.72c0,16.15,6.22,31.63,17.41,39.9"/><line class="cls-1" x1="187.97" y1="117.37" x2="187.97" y2="93"/><path class="cls-1" d="M104.27,239.76s50.18-33.08,66.29-45C181.75,186.51,188,171,188,154.88V147"/><path class="cls-1" d="M104.27,262l-10.22-6.74C92,253.9,43.26,221.78,27,209.72,11.32,198.17,2,177.67,2,154.88V45.25l19.86,1.38c.82.06,1.64.09,2.47.09,24.83,0,56.9-23.62,67.4-32.92L104.27,2,116.8,13.81c10.51,9.29,42.57,32.91,67.4,32.91h0c.82,0,1.65,0,2.46-.09l19.87-1.38V154.88c0,22.79-9.33,43.29-24.95,54.84-16.32,12.06-65,44.18-67.1,45.54Z"/><path class="cls-2" d="M115.56,156.14l47.72-56.4a6.77,6.77,0,0,0,.26-8.41h0a6.76,6.76,0,0,0-9.8-1.11L108,129.06a2.15,2.15,0,0,1-3,0l-22.21-14a8.2,8.2,0,0,0-10.17,1.14h0a8.21,8.21,0,0,0-.34,11.25L97.8,156.34A11.74,11.74,0,0,0,115.56,156.14Z"/><path class="cls-2" d="M133.64,87.68A53.94,53.94,0,1,0,158,132.8c0-1.54-.06-3.08-.19-4.59"/></g></g></svg>