<svg xmlns="http://www.w3.org/2000/svg" viewBox="0 0 239.01 253.72"><defs><style>.cls-1,.cls-2{fill:none;stroke-linecap:round;stroke-linejoin:round;stroke-width:4px;}.cls-1{stroke:#1e1e1e;}.cls-2{stroke:#fc3;}</style></defs><g id="Layer_2" data-name="Layer 2"><g id="Layer_1-2" data-name="Layer 1"><path class="cls-1" d="M119.86,108.67A20.1,20.1,0,0,1,138,120"/><path class="cls-1" d="M159.63,130.75a41.76,41.76,0,1,0-62.81,36,.58.58,0,0,1,.28.49v27.61a19,19,0,0,0,19,19h3.47a19,19,0,0,0,19-19V167.26a.55.55,0,0,1,.28-.49A41.7,41.7,0,0,0,159.63,130.75Z"/><line class="cls-1" x1="97.1" y1="184.8" x2="138.66" y2="184.8"/><line class="cls-1" x1="179" y1="131.64" x2="185.68" y2="131.64"/><line class="cls-1" x1="50.08" y1="131.64" x2="56.76" y2="131.64"/><line class="cls-1" x1="117.88" y1="70.52" x2="117.88" y2="63.84"/><line class="cls-1" x1="161.09" y1="88.42" x2="165.82" y2="83.7"/><line class="cls-1" x1="69.93" y1="179.58" x2="74.66" y2="174.86"/><line class="cls-1" x1="74.66" y1="88.42" x2="69.93" y2="83.7"/><line class="cls-1" x1="165.82" y1="179.58" x2="161.09" y2="174.86"/><polyline class="cls-2" points="204.77 178.61 209.76 205.95 237.01 200.52"/><path class="cls-2" d="M188,227.94A115.09,115.09,0,0,1,11.17,179.69"/><path class="cls-2" d="M165.53,32a115.14,115.14,0,0,1,44.21,174"/><path class="cls-2" d="M3.54,149.27A115,115,0,0,1,136.65,23.19"/><polyline class="cls-2" points="37.26 189.3 11.19 179.69 2 205.92"/><polyline class="cls-2" points="115.18 40.82 136.65 23.19 118.68 2"/></g></g></svg>