<svg xmlns="http://www.w3.org/2000/svg" viewBox="0 0 272.79 244.56"><defs><style>.cls-1,.cls-2{fill:none;stroke-linecap:round;stroke-linejoin:round;stroke-width:4px;}.cls-1{stroke:#1e1e1e;}.cls-2{stroke:#fc3;}</style></defs><g id="Layer_2" data-name="Layer 2"><g id="Layer_1-2" data-name="Layer 1"><path class="cls-1" d="M136.4,68.29a33.15,33.15,0,1,1,33.14-33.14A33.15,33.15,0,0,1,136.4,68.29Z"/><path class="cls-1" d="M106.94,153V121.32a15.66,15.66,0,0,0-6.25-12.52L59.58,75.39c-5.46-4.1-6.91-11.4-2.9-16.75S68,52.73,73.48,56.82l27.35,20.37A59.56,59.56,0,0,0,136.39,89h0A59.52,59.52,0,0,0,172,77.19l27.36-20.37c5.46-4.09,12.79-3.54,16.8,1.82s2.56,12.65-2.91,16.75L172.09,108.8a15.69,15.69,0,0,0-6.25,12.52V153"/><path class="cls-2" d="M235,125.38l8.84,17.91a4.45,4.45,0,0,0,3.34,2.43L267,148.59a4.44,4.44,0,0,1,2.46,7.58l-14.3,13.94a4.42,4.42,0,0,0-1.28,3.93l3.38,19.69a4.44,4.44,0,0,1-6.44,4.68l-17.69-9.29a4.44,4.44,0,0,0-4.13,0l-17.68,9.29a4.44,4.44,0,0,1-6.45-4.68L208.23,174a4.45,4.45,0,0,0-1.27-3.93l-14.31-13.94a4.44,4.44,0,0,1,2.46-7.58l19.77-2.87a4.42,4.42,0,0,0,3.34-2.43l8.85-17.91A4.44,4.44,0,0,1,235,125.38Z"/><path class="cls-2" d="M45.72,125.38l8.85,17.91a4.42,4.42,0,0,0,3.34,2.43l19.77,2.87a4.44,4.44,0,0,1,2.46,7.58L65.83,170.11A4.45,4.45,0,0,0,64.56,174l3.37,19.69a4.43,4.43,0,0,1-6.44,4.68l-17.68-9.29a4.44,4.44,0,0,0-4.13,0L22,198.41a4.44,4.44,0,0,1-6.44-4.68L18.93,174a4.42,4.42,0,0,0-1.28-3.93L3.35,156.17a4.44,4.44,0,0,1,2.46-7.58l19.77-2.87a4.45,4.45,0,0,0,3.34-2.43l8.84-17.91A4.44,4.44,0,0,1,45.72,125.38Z"/><path class="cls-2" d="M141.87,141.41,154,166.05a6.1,6.1,0,0,0,4.59,3.34l27.19,4a6.1,6.1,0,0,1,3.38,10.41l-19.67,19.18a6.09,6.09,0,0,0-1.75,5.4l4.64,27.08a6.1,6.1,0,0,1-8.86,6.43l-24.32-12.78a6.07,6.07,0,0,0-5.68,0l-24.31,12.78a6.1,6.1,0,0,1-8.86-6.43L105,208.33a6.09,6.09,0,0,0-1.75-5.4L83.59,183.75A6.1,6.1,0,0,1,87,173.34l27.19-4a6.12,6.12,0,0,0,4.59-3.34l12.16-24.64A6.1,6.1,0,0,1,141.87,141.41Z"/></g></g></svg>