<svg xmlns="http://www.w3.org/2000/svg" viewBox="0 0 224.37 217"><defs><style>.cls-1,.cls-2{fill:none;stroke-linecap:round;stroke-linejoin:round;stroke-width:4px;}.cls-1{stroke:#000;}.cls-2{stroke:#fc3;}</style></defs><g id="Layer_2" data-name="Layer 2"><g id="Layer_1-2" data-name="Layer 1"><path class="cls-1" d="M179.4,89.19s26.3,9.7,32.18,17.3c12.74,16.49,11.22,52.5,8.17,72-2.54,16.25,2.62,36.47,2.62,36.47"/><path class="cls-1" d="M122.45,149.65c0,34,29.54,41,34.57,65.35"/><path class="cls-2" d="M133.7,121.9a298.47,298.47,0,0,1-42.22,32l-2.16,1.31-2.15-1.31C83.69,151.82,2,101.64,2,48.5A46.49,46.49,0,0,1,89.32,26.25,46.5,46.5,0,0,1,176.65,48.5c0,16.79-8.16,33.28-19.42,48.06"/><path class="cls-2" d="M130.15,30.59A17.93,17.93,0,0,1,148.06,48.5"/><path class="cls-1" d="M186.57,126.16c-8.44-13.19-17.9-14.28-24.37-22.93-12.61-16.85-11.37-15.58-22.95-30.89-6.88-9.1-11.66-14.56-20.63-10.41-7.53,3.48-7.72,9.46-5.43,17.43,2.79,9.73,20.57,42.25,24.2,49.78a9.93,9.93,0,0,1,1,5.19c-.8,9.71-2.47,37.33,32.82,53.26"/></g></g></svg>